<svg width="40" height="41" viewBox="0 0 40 41" fill="none" xmlns="http://www.w3.org/2000/svg">
<ellipse cx="20" cy="20.6038" rx="20" ry="20.0629" fill="white"/>
<path d="M24.4806 10.5723H15.5192C12.4759 10.5723 10 13.0561 10 16.1089V25.0985C10 28.1515 12.4759 30.6352 15.5192 30.6352H24.4806C27.5241 30.6352 30 28.1514 30 25.0985V16.1089C30.0001 13.0561 27.5241 10.5723 24.4806 10.5723ZM28.2256 25.0985C28.2256 27.1699 26.5456 28.8551 24.4807 28.8551H15.5192C13.4544 28.8552 11.7745 27.1699 11.7745 25.0985V16.1089C11.7745 14.0376 13.4544 12.3523 15.5192 12.3523H24.4806C26.5455 12.3523 28.2255 14.0376 28.2255 16.1089V25.0985H28.2256Z" fill="#292929"/>
<path d="M20.0002 15.4342C17.1585 15.4342 14.8467 17.7533 14.8467 20.6039C14.8467 23.4544 17.1585 25.7734 20.0002 25.7734C22.8419 25.7734 25.1537 23.4544 25.1537 20.6039C25.1537 17.7533 22.8419 15.4342 20.0002 15.4342ZM20.0002 23.9932C18.1371 23.9932 16.6212 22.4727 16.6212 20.6038C16.6212 18.7347 18.137 17.2142 20.0002 17.2142C21.8634 17.2142 23.3792 18.7347 23.3792 20.6038C23.3792 22.4727 21.8633 23.9932 20.0002 23.9932Z" fill="#292929"/>
<path d="M25.3697 13.9246C25.0278 13.9246 24.6919 14.0634 24.4505 14.3067C24.2078 14.5488 24.0684 14.8858 24.0684 15.23C24.0684 15.573 24.208 15.9099 24.4505 16.1532C24.6918 16.3953 25.0278 16.5353 25.3697 16.5353C25.7127 16.5353 26.0475 16.3953 26.29 16.1532C26.5325 15.9099 26.671 15.5729 26.671 15.23C26.671 14.8858 26.5325 14.5488 26.29 14.3067C26.0487 14.0634 25.7127 13.9246 25.3697 13.9246Z" fill="#292929"/>
</svg>
