<svg width="40" height="41" viewBox="0 0 40 41" fill="none" xmlns="http://www.w3.org/2000/svg">
<ellipse cx="20" cy="20.6038" rx="20" ry="20.0629" fill="white"/>
<path fill-rule="evenodd" clip-rule="evenodd" d="M19.7637 26.4891H21.0788C21.0788 26.4891 21.476 26.4475 21.6788 26.2393C21.8654 26.0481 21.8595 25.6891 21.8595 25.6891C21.8595 25.6891 21.8338 24.0085 22.6527 23.761C23.46 23.5172 24.4967 25.3853 25.5955 26.1036C26.4264 26.6472 27.0577 26.528 27.0577 26.528L29.9957 26.4891C29.9957 26.4891 31.5326 26.3989 30.8039 25.2479C30.7442 25.1537 30.3795 24.3965 28.6195 22.8404C26.7773 21.2118 27.024 21.4753 29.2431 18.6582C30.5945 16.9425 31.1348 15.8951 30.9661 15.4465C30.8051 15.0192 29.8111 15.1322 29.8111 15.1322L26.5031 15.1518C26.5031 15.1518 26.2579 15.1199 26.076 15.2235C25.8983 15.325 25.7839 15.5617 25.7839 15.5617C25.7839 15.5617 25.2604 16.8893 24.5621 18.0184C23.0891 20.4008 22.5001 20.5266 22.2594 20.3786C21.6994 20.0339 21.8392 18.9936 21.8392 18.2545C21.8392 15.9457 22.2068 14.9831 21.1233 14.7339C20.7637 14.6511 20.499 14.5965 19.5795 14.5877C18.3991 14.576 17.4001 14.5911 16.8344 14.8551C16.4581 15.0306 16.1678 15.4217 16.3446 15.4442C16.5632 15.4721 17.0584 15.5714 17.321 15.9119C17.6599 16.3511 17.648 17.3377 17.648 17.3377C17.648 17.3377 17.8427 20.0555 17.1931 20.3931C16.7472 20.6247 16.1355 20.1519 14.8223 17.9905C14.1494 16.8834 13.6414 15.6596 13.6414 15.6596C13.6414 15.6596 13.5434 15.4308 13.3687 15.3085C13.1567 15.1603 12.8604 15.1131 12.8604 15.1131L9.71694 15.1327C9.71694 15.1327 9.24505 15.1452 9.07182 15.3407C8.91771 15.5145 9.05957 15.8741 9.05957 15.8741C9.05957 15.8741 11.5206 21.3581 14.3071 24.1217C16.8622 26.6555 19.7637 26.4891 19.7637 26.4891Z" fill="#292929"/>
</svg>
