<svg width="100" height="100" viewBox="0 0 100 100" fill="none" xmlns="http://www.w3.org/2000/svg">
<circle cx="50" cy="50" r="50" fill="white"/>
<path d="M73.9105 49.8631V42.555H61.9435C62.2175 42.281 62.4916 42.0069 62.6743 41.6415H64.3186C66.6024 41.6415 68.4294 39.8145 68.4294 37.5307C68.4294 35.2469 66.6024 33.4199 64.3186 33.4199H63.8618H62.9483H51.0727V37.9875C51.0727 39.8145 51.8035 41.3675 52.9911 42.555H42.8511V49.8631H44.6781V48.0361H45.957L47.784 51.6902H49.2457V74.528C49.2457 75.5328 48.4235 76.355 47.4186 76.355C46.4138 76.355 45.5916 75.5328 45.5916 74.528H43.7646C43.7646 76.5377 45.4089 78.182 47.4186 78.182C49.4284 78.182 51.0727 76.5377 51.0727 74.528V61.7388H65.6889V74.528C65.6889 76.5377 67.3332 78.182 69.3429 78.182C71.3526 78.182 72.997 76.5377 72.997 74.528H71.1699C71.1699 75.5328 70.3478 76.355 69.3429 76.355C68.3381 76.355 67.5159 75.5328 67.5159 74.528V51.6902H68.9775L70.8045 48.0361H72.0835V49.8631H73.9105ZM64.3186 35.2469C65.5975 35.2469 66.6024 36.2518 66.6024 37.5307C66.6024 38.8096 65.5975 39.8145 64.3186 39.8145H63.5878C63.7705 39.2664 63.8618 38.6269 63.8618 37.9875V35.2469H64.3186ZM52.8997 37.9875V35.2469H62.0348V37.9875C62.0348 40.5453 60.0251 42.555 57.4673 42.555C54.9094 42.555 52.8997 40.5453 52.8997 37.9875ZM51.0727 59.9118V58.0847H65.6889V59.9118H51.0727ZM65.6889 56.2577H51.0727V51.6902H65.6889V56.2577ZM67.8813 49.8631H48.8803L47.9667 48.0361H68.7948L67.8813 49.8631ZM44.6781 46.2091V44.3821H72.0835V46.2091H44.6781Z" fill="#8A8CDC"/>
<path d="M53.8134 26.66C53.2653 27.2081 52.8999 28.0302 52.8999 28.8524C52.8999 29.6746 53.2653 30.4967 53.8134 31.0448L55.001 32.2324L56.2799 30.9535L55.0923 29.7659C54.8183 29.4919 54.7269 29.2178 54.7269 28.8524C54.7269 28.487 54.8183 28.2129 55.0923 27.9389L55.6404 27.3908C56.1885 26.8427 56.5539 26.0205 56.5539 25.1984C56.5539 24.3762 56.1885 23.554 55.6404 23.0059L54.4529 21.8184L53.174 23.0973L54.3615 24.2848C54.6356 24.5589 54.7269 24.8329 54.7269 25.1984C54.7269 25.5638 54.6356 25.8378 54.3615 26.1119L53.8134 26.66Z" fill="#8A8CDC"/>
<path d="M59.2944 26.66C58.7463 27.2081 58.3809 28.0302 58.3809 28.8524C58.3809 29.6746 58.7463 30.4967 59.2944 31.0448L60.4819 32.2324L61.7609 30.9535L60.5733 29.7659C60.2992 29.4919 60.2079 29.2178 60.2079 28.8524C60.2079 28.487 60.2992 28.2129 60.5733 27.9389L61.1214 27.3908C61.6695 26.8427 62.0349 26.0205 62.0349 25.1984C62.0349 24.3762 61.6695 23.554 61.1214 23.0059L59.9338 21.8184L58.6549 23.0973L59.8425 24.2848C60.1165 24.5589 60.2079 24.8329 60.2079 25.1984C60.2079 25.5638 60.1165 25.8378 59.8425 26.1119L59.2944 26.66Z" fill="#8A8CDC"/>
</svg>
